<?xml version="1.0" encoding="UTF-8"?>
<svg width="1239px" height="817px" viewBox="0 0 1239 817" preserveAspectRatio="none" version="1.1" xmlns="http://www.w3.org/2000/svg" xmlns:xlink="http://www.w3.org/1999/xlink">
    <!-- Generator: sketchtool 52.6 (67491) - http://www.bohemiancoding.com/sketch -->
    <title>FC4DD5C6-DD89-4FE9-B65F-C68105504CC7</title>
    <desc>Created with sketchtool.</desc>
    <g id="Authentication" stroke="none" stroke-width="1" fill="none" fill-rule="evenodd" fill-opacity="0.5">
        <g id="Sign-Up-Error-1440px" transform="translate(-107.000000, -83.000000)" fill="#E9E9F3" fill-rule="nonzero">
            <g id="bg">
                <g id="bg-shape" transform="translate(37.000000, -44.000000)">
                    <g transform="translate(682.468787, 501.185559) rotate(-8.000000) translate(-682.468787, -501.185559) translate(51.968787, 83.685559)" id="Path-8">
                        <path d="M136.090042,57.600625 C183.271437,15.1767718 319.5979,-16.4745662 396.796721,10.5065484 C473.995541,37.4876629 675.761347,153.679295 793.113317,182.847625 C910.465287,212.015954 1228.93898,373.518672 1231.98176,437.071521 C1235.02455,500.624371 1166.64595,675.502902 1107.99092,717.479872 C1049.33588,759.456841 917.109747,777.485784 862.9644,792.010313 C808.819053,806.534843 267.711237,814.374453 126.367444,738.590812 C32.1382483,688.068385 -9.35930132,626.770462 1.87479509,554.697044 C91.2432768,223.81229 88.9086472,100.024478 136.090042,57.600625 Z"></path>
                        <path d="M72.5669891,165.581962 C94.3272809,98.569262 226.965089,54.3581005 309.961716,63.7464113 C392.958344,73.1347221 624.051427,141.802481 746.540472,144.627873 C869.029518,147.453264 1226.99868,234.682799 1249.66252,295.430403 C1272.32636,356.178007 1260.49947,539.921648 1216.82799,593.154079 C1173.15652,646.38651 1050.93639,692.377344 1003.10476,718.110644 C955.273127,743.843944 434.649394,868.340189 274.502606,825.658959 C167.738081,797.204805 108.602095,746.945156 97.0946503,674.880013 C80.7972982,335.866918 50.8066973,232.594662 72.5669891,165.581962 Z"></path>
                        <path d="M63.6998009,105.142694 C99.9325928,27.3611879 229.068124,5.78069947 310.737437,21.1350737 C392.40675,36.4894479 615.362835,121.516694 737.044907,133.212409 C858.726978,144.908124 1206.09043,257.592436 1222.31547,319.624108 C1238.54052,381.65578 1207.57408,563.451571 1158.52587,613.199743 C1109.47767,662.947916 982.96534,699.798414 932.646191,721.908713 C882.327043,744.019011 350.877544,830.003507 195.857391,775.95611 C92.5106225,739.924512 38.8705662,685.672389 34.9372221,613.199743 C29.95708,326.34938 39.5446062,156.997031 63.6998009,105.142694 Z"></path>
                    </g>
                </g>
            </g>
        </g>
    </g>
</svg>